:SAMPLES-PER-SECOND 30
:FULLY-SPECIFIED
:DEGREES
662
root  -31.3877 33.9557 -11.0832 -174.779 56.2973 178.387
RightUpLeg  -19.2622 -25.6683 0.373137
RightLeg  53.1645 1.9031 2.16591
RightFoot  5.99003 0.00238939 0.467874
RightToes  -54.8332 -0.346444 -0.382728
Spine  -1.26863 2.73316 -2.08216
Spine1  -2.7155 5.60423 -3.56412
HEad  -63.1062 26.0217 7.68867
LeftShoulder1  -1.94126e-019 -3.10601e-018 -2.51263e-017
LeftArm  -21.6642 14.8977 -69.739
LeftForeArm  26.8431 -22.3211 -3.72329
LeftHand  -0.376883 0.377499 8.76177
RightShoulder  -4.96962e-017 0 -2.36833e-017
RightArm  -26.3277 -11.2054 76.9661
RightForeArm  63.3025 11.7925 1.47748
RightHand  -0.473092 -0.519671 -11.2747
LeftUpLeg  -24.7309 8.92494 -6.87683
LeftLeg  30.3939 25.798 12.3486
LeftFoot  -4.2085 -0.0832998 -2.10522
LeftToes  9.16121 2.03064e-006 1.83538e-008
663
root  -30.7535 34.109 -11.263 -174.835 56.3807 178.463
RightUpLeg  -24.5819 -26.2254 0.647193
RightLeg  61.067 0.257575 0.304956
RightFoot  11.9542 0.0277805 0.266101
RightToes  -41.0219 -0.226697 -0.320822
Spine  -1.37519 2.62221 -1.99022
Spine1  -2.95361 5.4257 -3.41116
HEad  -61.9168 26.8891 7.62526
LeftShoulder1  -1.94126e-019 -3.10601e-018 -2.51263e-017
LeftArm  -22.8768 14.2323 -69.3172
LeftForeArm  24.1729 -22.7977 -3.80175
LeftHand  -0.350379 1.06418 9.36476
RightShoulder  -4.96962e-017 0 -2.36833e-017
RightArm  -25.6472 -11.1502 77.1827
RightForeArm  64.2274 11.3899 1.50578
RightHand  -0.476064 0.0446301 -10.2183
LeftUpLeg  -22.761 11.6293 -6.63692
LeftLeg  28.0604 23.9898 10.4357
LeftFoot  -4.46192 -0.0844901 -2.00694
LeftToes  9.48223 2.03064e-006 1.83538e-008
664
root  -30.1234 34.2844 -11.3744 -174.418 55.2542 179.063
RightUpLeg  -28.5296 -26.6106 1.5136
RightLeg  64.5208 -1.83111 -3.39729
RightFoot  10.7073 0.098423 -0.496778
RightToes  -32.2167 -0.15948 -0.267074
Spine  -1.28881 2.38165 -1.78887
Spine1  -2.7847 4.98417 -3.03712
HEad  -62.0643 27.3653 6.8949
LeftShoulder1  -1.94126e-019 -3.10601e-018 -2.51263e-017
LeftArm  -23.5604 13.042 -69.5439
LeftForeArm  23.116 -23.5644 -3.9551
LeftHand  -0.338928 1.30101 9.67948
RightShoulder  -4.96962e-017 0 -2.36833e-017
RightArm  -25.7232 -11.1402 77.005
RightForeArm  64.4006 11.394 1.50592
RightHand  -0.458361 0.50223 -9.11605
LeftUpLeg  -20.8739 10.3202 -5.58662
LeftLeg  26.342 24.4433 9.7979
LeftFoot  -3.76552 -0.0606687 -1.68384
LeftToes  8.14604 2.03064e-006 1.83538e-008
665
root  -29.455 34.4789 -11.4085 -173.052 53.5804 -179.054
RightUpLeg  -30.8212 -26.2903 2.92756
RightLeg  63.3515 -3.51906 -6.09763
RightFoot  8.719 0.106692 -0.830397
RightToes  -29.8596 -0.142955 -0.250989
Spine  -1.06845 2.17787 -1.32552
Spine1  -2.31047 4.60179 -2.13723
HEad  -63.1495 27.5483 6.39301
LeftShoulder1  -1.94126e-019 -3.10601e-018 -2.51263e-017
LeftArm  -22.864 11.8256 -70.3113
LeftForeArm  23.4871 -24.9886 -4.2229
LeftHand  -0.342202 1.25426 9.54431
RightShoulder  -4.96962e-017 0 -2.36833e-017
RightArm  -25.9675 -11.4179 76.4288
RightForeArm  63.7448 11.7152 1.48364
RightHand  -0.461806 0.437876 -9.27954
LeftUpLeg  -19.1989 7.31534 -3.51001
LeftLeg  25.245 26.0249 9.83348
LeftFoot  -2.69978 -0.0333053 -1.25171
LeftToes  5.46901 2.03064e-006 1.83538e-008
666
root  -28.746 34.6646 -11.4504 -172.209 51.4345 -177.719
RightUpLeg  -31.3518 -25.3715 3.48119
RightLeg  58.3273 -4.2915 -6.09934
RightFoot  8.23403 0.101309 -0.836336
RightToes  -29.8421 -0.142835 -0.250867
Spine  -0.891629 1.89672 -0.97059
Spine1  -1.92816 4.04788 -1.45067
HEad  -63.8288 27.2412 6.66821
LeftShoulder1  -1.94126e-019 -3.10601e-018 -2.51263e-017
LeftArm  -19.9554 11.0402 -70.8812
LeftForeArm  23.4167 -26.2956 -4.47763
LeftHand  -0.343506 1.17223 9.40297
RightShoulder  -4.96962e-017 0 -2.36833e-017
RightArm  -26.1451 -12.0599 75.9658
RightForeArm  62.6762 11.9835 1.46167
RightHand  -0.475943 0.0577945 -10.1923
LeftUpLeg  -17.1719 5.31634 -1.74406
LeftLeg  23.1341 26.2001 8.85986
LeftFoot  -1.72479 -0.013592 -0.741352
LeftToes  3.03087 2.03064e-006 1.83538e-008
667
root  -28.0838 34.7748 -11.4808 -172.054 49.1017 -177.864
RightUpLeg  -30.9943 -23.3967 2.71972
RightLeg  50.1855 -4.33915 -4.60606
RightFoot  9.22198 0.110619 -0.804985
RightToes  -32.8618 -0.164116 -0.271356
Spine  -0.920358 1.5751 -0.935699
Spine1  -1.96662 3.37328 -1.36915
HEad  -63.9146 26.5028 7.36035
LeftShoulder1  -1.94126e-019 -3.10601e-018 -2.51263e-017
LeftArm  -16.2281 10.5721 -71.2281
LeftForeArm  23.3852 -27.1634 -4.62805
LeftHand  -0.34384 0.928179 8.92098
RightShoulder  -4.96962e-017 0 -2.36833e-017
RightArm  -26.3447 -12.8347 75.6348
RightForeArm  61.7311 12.133 1.44943
RightHand  -0.475429 -0.0860992 -10.444
LeftUpLeg  -15.6868 4.965 -1.06484
LeftLeg  20.4447 24.6738 7.16413
LeftFoot  -0.966191 -0.00398758 -0.311351
LeftToes  1.80484 2.03064e-006 1.83538e-008
